<svg width="25" height="24" viewBox="0 0 25 24" fill="none" xmlns="http://www.w3.org/2000/svg">
<g clip-path="url(#clip0_2_118)">
<path d="M12.8428 9C12.0471 9 11.2841 9.31607 10.7215 9.87868C10.1588 10.4413 9.84277 11.2044 9.84277 12C9.84277 12.7956 10.1588 13.5587 10.7215 14.1213C11.2841 14.6839 12.0471 15 12.8428 15C13.6384 15 14.4015 14.6839 14.9641 14.1213C15.5267 13.5587 15.8428 12.7956 15.8428 12C15.8428 11.2044 15.5267 10.4413 14.9641 9.87868C14.4015 9.31607 13.6384 9 12.8428 9ZM12.8428 7C14.1689 7 15.4406 7.52678 16.3783 8.46447C17.316 9.40215 17.8428 10.6739 17.8428 12C17.8428 13.3261 17.316 14.5979 16.3783 15.5355C15.4406 16.4732 14.1689 17 12.8428 17C11.5167 17 10.2449 16.4732 9.30724 15.5355C8.36956 14.5979 7.84277 13.3261 7.84277 12C7.84277 10.6739 8.36956 9.40215 9.30724 8.46447C10.2449 7.52678 11.5167 7 12.8428 7ZM19.3428 6.75C19.3428 7.08152 19.2111 7.39946 18.9767 7.63388C18.7422 7.8683 18.4243 8 18.0928 8C17.7613 8 17.4433 7.8683 17.2089 7.63388C16.9745 7.39946 16.8428 7.08152 16.8428 6.75C16.8428 6.41848 16.9745 6.10054 17.2089 5.86612C17.4433 5.6317 17.7613 5.5 18.0928 5.5C18.4243 5.5 18.7422 5.6317 18.9767 5.86612C19.2111 6.10054 19.3428 6.41848 19.3428 6.75ZM12.8428 4C10.3688 4 9.96477 4.007 8.81377 4.058C8.02977 4.095 7.50377 4.2 7.01577 4.39C6.58177 4.558 6.26877 4.759 5.93577 5.093C5.62278 5.3954 5.38213 5.76458 5.23177 6.173C5.04177 6.663 4.93677 7.188 4.90077 7.971C4.84877 9.075 4.84277 9.461 4.84277 12C4.84277 14.474 4.84977 14.878 4.90077 16.029C4.93777 16.812 5.04277 17.339 5.23177 17.826C5.40177 18.261 5.60177 18.574 5.93377 18.906C6.27077 19.242 6.58377 19.443 7.01377 19.609C7.50777 19.8 8.03377 19.906 8.81377 19.942C9.91777 19.994 10.3038 20 12.8428 20C15.3168 20 15.7208 19.993 16.8718 19.942C17.6538 19.905 18.1808 19.8 18.6688 19.611C19.1018 19.442 19.4168 19.241 19.7488 18.909C20.0858 18.572 20.2868 18.259 20.4528 17.829C20.6428 17.336 20.7488 16.809 20.7848 16.029C20.8368 14.925 20.8428 14.539 20.8428 12C20.8428 9.526 20.8358 9.122 20.7848 7.971C20.7478 7.189 20.6428 6.661 20.4528 6.173C20.3021 5.765 20.0618 5.39596 19.7498 5.093C19.4475 4.77985 19.0783 4.53917 18.6698 4.389C18.1798 4.199 17.6538 4.094 16.8718 4.058C15.7678 4.006 15.3818 4 12.8428 4ZM12.8428 2C15.5598 2 15.8988 2.01 16.9648 2.06C18.0298 2.11 18.7548 2.277 19.3928 2.525C20.0528 2.779 20.6088 3.123 21.1648 3.678C21.6733 4.1779 22.0667 4.78259 22.3178 5.45C22.5648 6.087 22.7328 6.813 22.7828 7.878C22.8298 8.944 22.8428 9.283 22.8428 12C22.8428 14.717 22.8328 15.056 22.7828 16.122C22.7328 17.187 22.5648 17.912 22.3178 18.55C22.0674 19.2178 21.6739 19.8226 21.1648 20.322C20.6647 20.8303 20.0601 21.2238 19.3928 21.475C18.7558 21.722 18.0298 21.89 16.9648 21.94C15.8988 21.987 15.5598 22 12.8428 22C10.1258 22 9.78677 21.99 8.72077 21.94C7.65577 21.89 6.93077 21.722 6.29277 21.475C5.6251 21.2245 5.0203 20.8309 4.52077 20.322C4.01218 19.8222 3.6187 19.2175 3.36777 18.55C3.11977 17.913 2.95277 17.187 2.90277 16.122C2.85577 15.056 2.84277 14.717 2.84277 12C2.84277 9.283 2.85277 8.944 2.90277 7.878C2.95277 6.812 3.11977 6.088 3.36777 5.45C3.61801 4.78218 4.01158 4.17732 4.52077 3.678C5.02044 3.16923 5.6252 2.77573 6.29277 2.525C6.93077 2.277 7.65477 2.11 8.72077 2.06C9.78677 2.013 10.1258 2 12.8428 2Z" fill="white"/>
</g>
<defs>
<clipPath id="clip0_2_118">
<rect width="24" height="24" fill="white" transform="translate(0.842773)"/>
</clipPath>
</defs>
</svg>
