<svg width="25" height="24" viewBox="0 0 25 24" fill="none" xmlns="http://www.w3.org/2000/svg">
<g clip-path="url(#clip0_2_121)">
<path d="M23.0048 5.65593C22.2414 5.99362 21.4318 6.2154 20.6028 6.31393C21.4766 5.79136 22.1305 4.96894 22.4428 3.99993C21.6228 4.48793 20.7238 4.82993 19.7868 5.01493C19.1574 4.34151 18.3232 3.89489 17.4138 3.74451C16.5044 3.59413 15.5708 3.74842 14.7581 4.18338C13.9454 4.61834 13.2992 5.30961 12.9199 6.14972C12.5407 6.98983 12.4496 7.93171 12.6608 8.82893C10.9979 8.74558 9.37116 8.31345 7.88611 7.56059C6.40107 6.80773 5.09095 5.75097 4.04083 4.45893C3.66912 5.09738 3.47378 5.82315 3.47483 6.56193C3.47483 8.01193 4.21283 9.29293 5.33483 10.0429C4.67084 10.022 4.02146 9.84271 3.44083 9.51993V9.57193C3.44103 10.5376 3.7752 11.4735 4.38667 12.221C4.99815 12.9684 5.84931 13.4814 6.79583 13.6729C6.17944 13.84 5.53313 13.8646 4.90583 13.7449C5.17269 14.5762 5.69283 15.3031 6.39342 15.824C7.094 16.3449 7.93995 16.6337 8.81283 16.6499C7.94531 17.3313 6.952 17.8349 5.88971 18.1321C4.82741 18.4293 3.71695 18.5142 2.62183 18.3819C4.53352 19.6114 6.75892 20.264 9.03183 20.2619C16.7248 20.2619 20.9318 13.8889 20.9318 8.36193C20.9318 8.18193 20.9268 7.99993 20.9188 7.82193C21.7377 7.23009 22.4444 6.49695 23.0058 5.65693L23.0048 5.65593Z" fill="white"/>
</g>
<defs>
<clipPath id="clip0_2_121">
<rect width="24" height="24" fill="white" transform="translate(0.842773)"/>
</clipPath>
</defs>
</svg>
